She drove me into a corner, then forced me to go beyond my limits. She made me confront the absolute: love, sacrifice, tenderness, abandonment. She dislocated me, transformed me. Why didn't anyone warn me? Why doesn't anyone ever talk about this?" Un heureux événement, or an intimate view of motherhood, sincere and with no taboos.

General
Complete name                            : Un.Heureux.Evenement.2011.FRENCH.720p.BluRay.x264-LOST.mkv
Format                                   : Matroska
Format version                           : Version 2
File size                                : 4.37 GiB
Duration                                 : 1h 49mn
Overall bit rate                         : 5 715 Kbps
Writing application                      : mkvmerge v4.1.1 ('Bouncin' Back') built on Jul  3 2010 22:54:08
Writing library                          : libebml v1.0.0 + libmatroska v1.0
Video
ID                                       : 1
Format                                   : AVC
Format/Info                              : Advanced Video Codec
Format profile                           : High@L4.1
Format settings, CABAC                   : Yes
Format settings, ReFrames                : 5 frames
Codec ID                                 : V_MPEG4/ISO/AVC
Duration                                 : 1h 49mn
Bit rate                                 : 4 205 Kbps
Width                                    : 1 280 pixels
Height                                   : 544 pixels
Display aspect ratio                     : 2.35:1
Frame rate                               : 24.000 fps
Color space                              : YUV
Chroma subsampling                       : 4:2:0
Bit depth                                : 8 bits
Scan type                                : Progressive
Bits/(Pixel*Frame)                       : 0.252
Stream size                              : 3.13 GiB (72%)
Writing library                          : x264 core 120 r2146 bcd41db
Language                                 : English
Default                                  : Yes
Forced                                   : No
Audio
ID                                       : 2
Format                                   : DTS
Format/Info                              : Digital Theater Systems
Codec ID                                 : A_DTS
Duration                                 : 1h 49mn
Bit rate mode                            : Constant
Bit rate                                 : 1 510 Kbps
Channel(s)                               : 6 channels
Channel positions                        : Front: L C R, Side: L R, LFE
Sampling rate                            : 48.0 KHz
Bit depth                                : 24 bits
Compression mode                         : Lossy
Stream size                              : 1.15 GiB (26%)
Title                                    : French DTS 1509kbps
Language                                 : French
Default                                  : Yes
Forced                                   : No
